<svg width="24" height="24" viewBox="0 0 24 24" fill="none" xmlns="http://www.w3.org/2000/svg">
<g id="Information/ic/ic_arlert">
<g id="ic_exclamation-mark">
<path id="Shape" fill-rule="evenodd" clip-rule="evenodd" d="M0 11.9604C0 5.35526 5.35526 0 11.9604 0C18.5663 0 23.9209 5.35526 23.9209 11.9604C23.9209 18.5671 18.5664 23.9209 11.9604 23.9209C5.35526 23.9209 0 18.5664 0 11.9604ZM2.24262 11.9604C2.24262 17.3277 6.59323 21.6783 11.9604 21.6783C17.3277 21.6783 21.6783 17.3277 21.6783 11.9604C21.6783 6.59323 17.3277 2.24262 11.9604 2.24262C6.59323 2.24262 2.24262 6.59323 2.24262 11.9604ZM11.9612 5.24538C11.1046 5.24538 10.4564 5.69243 10.4564 6.41452V13.0376C10.4564 13.7604 11.1045 14.206 11.9612 14.206C12.7969 14.206 13.466 13.7418 13.466 13.0376V6.41452C13.4659 5.70958 12.7969 5.24538 11.9612 5.24538ZM10.4683 17.1916C10.4683 16.3679 11.1382 15.6981 11.9612 15.6981C12.7842 15.6981 13.4532 16.3678 13.4533 17.1916C13.4533 18.0139 12.7842 18.6837 11.9612 18.6837C11.1382 18.6837 10.4683 18.0139 10.4683 17.1916Z" fill="#FF1744"/>
</g>
</g>
</svg>
