<svg width="152" height="30" viewBox="0 0 152 30" fill="none" xmlns="http://www.w3.org/2000/svg">
<g id="logo_parking">
<path id="Shape" d="M34.604 1.67848C34.2764 1.33326 33.7054 1.33263 33.3628 1.66395L32.1485 2.83866C31.8236 3.15297 31.8274 3.65029 32.1365 3.9792C35.0961 7.12968 36.5759 11.1252 36.5757 15.1207C36.5756 19.1157 35.0958 23.1106 32.1365 26.2607C31.8274 26.5897 31.8236 27.0869 32.1485 27.4012L33.3628 28.5759C33.7054 28.9073 34.2764 28.9066 34.6041 28.5614C38.2016 24.7701 40.0002 19.9445 40 15.1189C39.9998 10.2942 38.2011 5.4693 34.604 1.67848Z" fill="white"/>
<path id="Shape_2" d="M3.42424 15.1195C3.42432 11.1244 4.90409 7.12938 7.86347 3.97922C8.17255 3.65023 8.1764 3.15299 7.85151 2.83869L6.63716 1.66398C6.29461 1.33259 5.72355 1.33329 5.39593 1.67851C1.79856 5.46962 -8.02607e-05 10.295 0 15.1204C8.02607e-05 19.9454 1.7988 24.7704 5.39593 28.5614C5.72347 28.9066 6.29461 28.9073 6.63716 28.5759L7.85151 27.4011C8.1764 27.0868 8.17255 26.5896 7.86347 26.2606C4.90393 23.1102 3.42416 19.1149 3.42424 15.1195Z" fill="white"/>
<path id="Shape_3" fill-rule="evenodd" clip-rule="evenodd" d="M5.2381 14.8837C5.2381 6.67636 11.9674 0 20.2381 0C28.5088 0 35.2381 6.67636 35.2381 14.8837C35.2381 23.0911 28.5088 29.7674 20.2381 29.7674C11.9674 29.7674 5.2381 23.0911 5.2381 14.8837ZM18.5617 16.5374H21.0617C23.359 16.5374 25.2283 14.6835 25.2283 12.4031C25.2283 10.1227 23.359 8.26876 21.0617 8.26868H17.7283C17.2677 8.26868 16.895 8.63853 16.895 9.09558V20.6718C16.895 21.1288 17.2677 21.4987 17.7283 21.4987C18.189 21.4987 18.5617 21.1288 18.5617 20.6718V16.5374Z" fill="white"/>
<path id="Shape_4" d="M21.1905 9.92249H18.5714V14.6475H21.1905C22.6347 14.6475 23.8095 13.5877 23.8095 12.285C23.8095 10.9822 22.6347 9.92249 21.1905 9.92249Z" fill="white"/>
<path id="ParkPark" fill-rule="evenodd" clip-rule="evenodd" d="M55.3301 15.4004H56.4258C57.4499 15.4004 58.2161 15.1981 58.7246 14.7935C59.2331 14.3888 59.4873 13.7998 59.4873 13.0264C59.4873 12.2458 59.2743 11.6693 58.8481 11.2969C58.422 10.9245 57.7542 10.7383 56.8447 10.7383H55.3301V15.4004ZM62.8496 12.9082C62.8496 14.5983 62.3215 15.8909 61.2651 16.7861C60.2088 17.6813 58.7067 18.1289 56.7588 18.1289H55.3301V23.7148H52V8.00977H57.0166C58.9216 8.00977 60.3699 8.41975 61.3618 9.23975C62.3537 10.0597 62.8496 11.2825 62.8496 12.9082ZM73.2304 23.7148L72.5966 22.082H72.5107C71.9592 22.7767 71.3917 23.2583 70.808 23.5269C70.2244 23.7954 69.4635 23.9297 68.5253 23.9297C67.3723 23.9297 66.4646 23.6003 65.8022 22.9414C65.1397 22.2825 64.8085 21.3444 64.8085 20.127C64.8085 18.8522 65.2543 17.9123 66.1459 17.3071C67.0375 16.702 68.3821 16.3672 70.1796 16.3027L72.2636 16.2383V15.7119C72.2636 14.4945 71.6406 13.8857 70.3945 13.8857C69.4348 13.8857 68.3069 14.1758 67.0107 14.7559L65.9257 12.543C67.3079 11.8197 68.8404 11.458 70.5234 11.458C72.1347 11.458 73.37 11.8089 74.2294 12.5107C75.0888 13.2126 75.5185 14.2796 75.5185 15.7119V23.7148H73.2304ZM72.2636 18.1504L70.996 18.1934C70.0435 18.222 69.3346 18.3939 68.8691 18.709C68.4036 19.0241 68.1708 19.5039 68.1708 20.1484C68.1708 21.0723 68.7008 21.5342 69.7607 21.5342C70.5198 21.5342 71.1267 21.3158 71.5815 20.8789C72.0362 20.4421 72.2636 19.862 72.2636 19.1387V18.1504ZM85.6415 11.4795C86.0855 11.4795 86.4543 11.5117 86.7479 11.5762L86.5008 14.6484C86.2359 14.5768 85.9136 14.541 85.534 14.541C84.4885 14.541 83.6739 14.8096 83.0902 15.3467C82.5065 15.8838 82.2147 16.6357 82.2147 17.6025V23.7148H78.9383V11.7051H81.4198L81.9032 13.7246H82.0643C82.4367 13.0514 82.9398 12.509 83.5736 12.0972C84.2074 11.6854 84.8967 11.4795 85.6415 11.4795ZM92.1228 17.1836L93.5516 15.3574L96.9139 11.7051H100.609L95.8396 16.915L100.899 23.7148H97.118L93.659 18.8486L92.2518 19.9766V23.7148H88.9754V7H92.2518V14.4551L92.0799 17.1836H92.1228ZM106.253 15.4004H107.348C108.372 15.4004 109.139 15.1981 109.647 14.7935C110.156 14.3888 110.41 13.7998 110.41 13.0264C110.41 12.2458 110.197 11.6693 109.771 11.2969C109.345 10.9245 108.677 10.7383 107.767 10.7383H106.253V15.4004ZM113.772 12.9082C113.772 14.5983 113.244 15.8909 112.188 16.7861C111.131 17.6813 109.629 18.1289 107.681 18.1289H106.253V23.7148H102.923V8.00977H107.939C109.844 8.00977 111.293 8.41975 112.284 9.23975C113.276 10.0597 113.772 11.2825 113.772 12.9082ZM124.153 23.7148L123.519 22.082H123.433C122.882 22.7767 122.314 23.2583 121.731 23.5269C121.147 23.7954 120.386 23.9297 119.448 23.9297C118.295 23.9297 117.387 23.6003 116.725 22.9414C116.062 22.2825 115.731 21.3444 115.731 20.127C115.731 18.8522 116.177 17.9123 117.069 17.3071C117.96 16.702 119.305 16.3672 121.102 16.3027L123.186 16.2383V15.7119C123.186 14.4945 122.563 13.8857 121.317 13.8857C120.357 13.8857 119.229 14.1758 117.933 14.7559L116.848 12.543C118.23 11.8197 119.763 11.458 121.446 11.458C123.057 11.458 124.293 11.8089 125.152 12.5107C126.011 13.2126 126.441 14.2796 126.441 15.7119V23.7148H124.153ZM123.186 18.1504L121.919 18.1934C120.966 18.222 120.257 18.3939 119.792 18.709C119.326 19.0241 119.093 19.5039 119.093 20.1484C119.093 21.0723 119.623 21.5342 120.683 21.5342C121.442 21.5342 122.049 21.3158 122.504 20.8789C122.959 20.4421 123.186 19.862 123.186 19.1387V18.1504ZM136.564 11.4795C137.008 11.4795 137.377 11.5117 137.671 11.5762L137.423 14.6484C137.158 14.5768 136.836 14.541 136.457 14.541C135.411 14.541 134.596 14.8096 134.013 15.3467C133.429 15.8838 133.137 16.6357 133.137 17.6025V23.7148H129.861V11.7051H132.342L132.826 13.7246H132.987C133.359 13.0514 133.862 12.509 134.496 12.0972C135.13 11.6854 135.819 11.4795 136.564 11.4795ZM143.045 17.1836L144.474 15.3574L147.836 11.7051H151.532L146.762 16.915L151.822 23.7148H148.041L144.582 18.8486L143.174 19.9766V23.7148H139.898V7H143.174V14.4551L143.002 17.1836H143.045Z" fill="white"/>
</g>
</svg>
